<svg width="456" height="456" viewBox="0 0 456 456" fill="none" xmlns="http://www.w3.org/2000/svg">
<mask id="mask0_4_2" style="mask-type:alpha" maskUnits="userSpaceOnUse" x="121" y="121" width="213" height="213">
<rect x="121" y="121" width="213" height="213" fill="#D9D9D9"/>
</mask>
<g mask="url(#mask0_4_2)">
<path d="M200.875 307.375C186.083 307.375 173.51 302.198 163.156 291.844C152.802 281.49 147.625 268.917 147.625 254.125V200.875C147.625 186.083 152.802 173.51 163.156 163.156C173.51 152.802 186.083 147.625 200.875 147.625H254.125C268.917 147.625 281.49 152.802 291.844 163.156C302.198 173.51 307.375 186.083 307.375 200.875V254.125C307.375 268.917 302.198 281.49 291.844 291.844C281.49 302.198 268.917 307.375 254.125 307.375H200.875ZM218.625 263L271.875 209.75L259.45 197.325L218.625 238.15L199.1 218.625L186.675 231.05L218.625 263ZM200.875 289.625H254.125C263.888 289.625 272.245 286.149 279.197 279.197C286.149 272.245 289.625 263.888 289.625 254.125V200.875C289.625 191.112 286.149 182.755 279.197 175.803C272.245 168.851 263.888 165.375 254.125 165.375H200.875C191.112 165.375 182.755 168.851 175.803 175.803C168.851 182.755 165.375 191.112 165.375 200.875V254.125C165.375 263.888 168.851 272.245 175.803 279.197C182.755 286.149 191.112 289.625 200.875 289.625Z" fill="white"/>
</g>
</svg>
